<svg width="71" height="72" viewBox="0 0 71 72" fill="none" xmlns="http://www.w3.org/2000/svg">
<mask id="mask0_8_339" style="mask-type:alpha" maskUnits="userSpaceOnUse" x="11" y="0" width="50" height="50">
<circle cx="36" cy="25" r="23.5" fill="black" stroke="black" stroke-width="3"/>
</mask>
<g mask="url(#mask0_8_339)">
<circle cx="36" cy="25" r="23.5" fill="black" stroke="black" stroke-width="3"/>
<path d="M21 6.49999C36 -3.99999 56 2.50001 59.5 24" stroke="white" stroke-width="4"/>
<path d="M49.8024 43.0859C39.5 55 12.8024 45.5859 12.8024 26.0859" stroke="white" stroke-width="4"/>
<path d="M49.32 10.68V11.48C48.52 11.64 47.9067 11.92 47.48 12.32C47.08 12.72 46.8133 13.3467 46.68 14.2C46.5467 15.0267 46.48 16.2 46.48 17.72V39C46.08 38.9467 45.64 38.92 45.16 38.92C44.7067 38.92 44.3017 38.8667 43.7683 38.92L25.96 19.64V31.16C25.96 32.9467 26.0267 34.32 26.16 35.28C26.32 36.2133 26.68 36.8933 27.24 37.32C27.8267 37.72 28.7467 38.0133 30 38.2V39C29.4667 38.9467 28.7733 38.92 27.92 38.92C27.0667 38.8933 26.2667 38.88 25.52 38.88C24.9333 38.88 24.3333 38.8933 23.72 38.92C23.1067 38.92 22.6 38.9467 22.2 39V38.2C23.0267 38.0133 23.64 37.7333 24.04 37.36C24.44 36.96 24.7067 36.3333 24.84 35.48C24.9733 34.6267 25.04 33.4533 25.04 31.96V14.92C25.04 13.9333 24.9733 13.2133 24.84 12.76C24.7067 12.28 24.4267 11.96 24 11.8C23.6 11.6133 23 11.5067 22.2 11.48V10.68C22.6 10.7067 23.1067 10.7333 23.72 10.76C24.3333 10.7867 24.9333 10.8 25.52 10.8C26.1867 10.8 26.84 10.7867 27.48 10.76C28.12 10.7333 28.6933 10.7067 29.2 10.68L45.56 27.96V18.52C45.56 16.7333 45.48 15.3733 45.32 14.44C45.1867 13.48 44.84 12.7867 44.28 12.36C43.72 11.9333 42.8 11.64 41.52 11.48V10.68C42.0533 10.7067 42.7467 10.7333 43.6 10.76C44.4533 10.7867 45.2533 10.8 46 10.8C46.6133 10.8 47.2133 10.7867 47.8 10.76C48.4133 10.7333 48.92 10.7067 49.32 10.68Z" fill="white"/>
<path d="M22.1404 10L47.2469 36.8058" stroke="black" stroke-width="2"/>
<line x1="33.7454" y1="18.1691" x2="20.8895" y2="4.60285" stroke="white" stroke-width="3.69"/>
<path d="M51.7828 45.2867L37.936 30.5" stroke="white" stroke-width="2.94"/>
<path d="M19 25.1381L19 26C19 26 16 26 12.1758 27.4065L10.5911 28.5133L10.6442 26.8257L10.6973 25.1381L15.8754 25.1626L19 25.1381Z" fill="white"/>
<path d="M53.4306 25.3709L53.4306 24.5089C53.4306 24.5089 56.4306 24.5089 60.2548 23.1024L61.8396 21.9957L61.7865 23.6833L61.7333 25.3709L56.5553 25.3464L53.4306 25.3709Z" fill="white"/>
</g>
<path d="M12.204 54.256V54.616C11.796 54.64 11.49 54.712 11.286 54.832C11.082 54.952 10.944 55.15 10.872 55.426C10.812 55.69 10.782 56.068 10.782 56.56V67.072C10.686 67.072 10.59 67.072 10.494 67.072C10.398 67.072 10.296 67.072 10.188 67.072L2.556 55.984V64.624C2.556 65.128 2.592 65.524 2.664 65.812C2.736 66.088 2.892 66.286 3.132 66.406C3.372 66.526 3.738 66.604 4.23 66.64V67C4.002 66.976 3.708 66.964 3.348 66.964C3 66.952 2.67 66.946 2.358 66.946C2.058 66.946 1.758 66.952 1.458 66.964C1.158 66.964 0.912 66.976 0.72 67V66.64C1.116 66.604 1.416 66.532 1.62 66.424C1.824 66.304 1.962 66.106 2.034 65.83C2.106 65.554 2.142 65.176 2.142 64.696V56.164C2.142 55.72 2.106 55.396 2.034 55.192C1.962 54.976 1.824 54.832 1.62 54.76C1.416 54.676 1.116 54.628 0.72 54.616V54.256C0.912 54.268 1.158 54.28 1.458 54.292C1.758 54.304 2.058 54.31 2.358 54.31C2.622 54.31 2.88 54.304 3.132 54.292C3.384 54.28 3.606 54.268 3.798 54.256L10.368 63.652V56.632C10.368 56.116 10.326 55.72 10.242 55.444C10.17 55.168 10.014 54.97 9.774 54.85C9.534 54.718 9.174 54.64 8.694 54.616V54.256C8.91 54.268 9.198 54.28 9.558 54.292C9.918 54.304 10.254 54.31 10.566 54.31C10.866 54.31 11.166 54.304 11.466 54.292C11.766 54.28 12.012 54.268 12.204 54.256ZM17.4129 57.46C18.4689 57.46 19.2969 57.778 19.8969 58.414C20.4969 59.05 20.7969 60.058 20.7969 61.438H14.5869L14.5509 61.096H18.8889C18.9009 60.508 18.8529 59.968 18.7449 59.476C18.6369 58.972 18.4689 58.57 18.2409 58.27C18.0129 57.97 17.7129 57.82 17.3409 57.82C16.8249 57.82 16.3749 58.096 15.9909 58.648C15.6189 59.188 15.3909 60.058 15.3069 61.258L15.3609 61.348C15.3489 61.516 15.3369 61.702 15.3249 61.906C15.3129 62.098 15.3069 62.29 15.3069 62.482C15.3069 63.31 15.4329 64.006 15.6849 64.57C15.9369 65.134 16.2669 65.56 16.6749 65.848C17.0829 66.124 17.4969 66.262 17.9169 66.262C18.2409 66.262 18.5529 66.214 18.8529 66.118C19.1649 66.01 19.4589 65.836 19.7349 65.596C20.0109 65.344 20.2569 65.002 20.4729 64.57L20.8329 64.714C20.6889 65.122 20.4669 65.524 20.1669 65.92C19.8669 66.316 19.4829 66.64 19.0149 66.892C18.5469 67.132 18.0009 67.252 17.3769 67.252C16.5369 67.252 15.8049 67.066 15.1809 66.694C14.5569 66.31 14.0769 65.764 13.7409 65.056C13.4049 64.348 13.2369 63.508 13.2369 62.536C13.2369 61.468 13.4109 60.556 13.7589 59.8C14.1069 59.044 14.5929 58.468 15.2169 58.072C15.8529 57.664 16.5849 57.46 17.4129 57.46ZM25.3187 57.712V58.09C25.0907 58.09 24.9047 58.144 24.7607 58.252C24.6167 58.36 24.6047 58.51 24.7247 58.702L29.5127 65.722C29.6927 65.998 29.8607 66.208 30.0167 66.352C30.1847 66.484 30.3767 66.574 30.5927 66.622V67C30.4487 66.988 30.2327 66.976 29.9447 66.964C29.6687 66.94 29.3867 66.928 29.0987 66.928C28.7027 66.928 28.2887 66.94 27.8567 66.964C27.4247 66.976 27.1067 66.988 26.9027 67V66.622C27.1427 66.622 27.3347 66.568 27.4787 66.46C27.6227 66.34 27.6287 66.19 27.4967 66.01L22.7087 58.99C22.4807 58.666 22.2947 58.444 22.1507 58.324C22.0187 58.192 21.8447 58.114 21.6287 58.09V57.712C21.7847 57.724 22.0127 57.742 22.3127 57.766C22.6127 57.778 22.9067 57.784 23.1947 57.784C23.5907 57.784 23.9927 57.778 24.4007 57.766C24.8207 57.742 25.1267 57.724 25.3187 57.712ZM25.5167 62.428C25.5167 62.428 25.5227 62.464 25.5347 62.536C25.5587 62.608 25.5827 62.686 25.6067 62.77C25.6427 62.854 25.6607 62.896 25.6607 62.896L24.4187 64.498C24.0947 64.918 23.9207 65.29 23.8967 65.614C23.8727 65.926 23.9807 66.166 24.2207 66.334C24.4607 66.502 24.7907 66.604 25.2107 66.64V67C24.9947 66.988 24.7487 66.982 24.4727 66.982C24.1967 66.97 23.9267 66.964 23.6627 66.964C23.3987 66.952 23.1707 66.946 22.9787 66.946C22.7027 66.946 22.4567 66.952 22.2407 66.964C22.0247 66.964 21.8267 66.976 21.6467 67V66.64C21.8867 66.592 22.1267 66.472 22.3667 66.28C22.6187 66.076 22.9127 65.764 23.2487 65.344L25.5167 62.428ZM30.1787 57.712V58.072C29.9387 58.12 29.6807 58.252 29.4047 58.468C29.1407 58.684 28.8647 58.99 28.5767 59.386L26.5247 62.122C26.5247 62.122 26.5127 62.086 26.4887 62.014C26.4767 61.93 26.4587 61.852 26.4347 61.78C26.4107 61.708 26.3987 61.672 26.3987 61.672L27.6407 59.962C27.9167 59.566 28.0907 59.236 28.1627 58.972C28.2347 58.708 28.1927 58.498 28.0367 58.342C27.8807 58.186 27.5867 58.096 27.1547 58.072V57.712C27.4787 57.724 27.7667 57.736 28.0187 57.748C28.2827 57.76 28.5587 57.766 28.8467 57.766C29.1227 57.766 29.3687 57.76 29.5847 57.748C29.8007 57.736 29.9987 57.724 30.1787 57.712ZM33.7857 67.126C33.2817 67.126 32.8497 67.03 32.4897 66.838C32.1297 66.646 31.8597 66.382 31.6797 66.046C31.4997 65.71 31.4097 65.326 31.4097 64.894C31.4097 64.366 31.5297 63.94 31.7697 63.616C32.0097 63.28 32.3157 63.01 32.6877 62.806C33.0717 62.602 33.4737 62.434 33.8937 62.302C34.3257 62.158 34.7277 62.026 35.0997 61.906C35.4837 61.774 35.7957 61.624 36.0357 61.456C36.2877 61.288 36.4137 61.066 36.4137 60.79V59.566C36.4137 59.134 36.3417 58.792 36.1977 58.54C36.0657 58.276 35.8797 58.09 35.6397 57.982C35.4117 57.874 35.1357 57.82 34.8117 57.82C34.5357 57.82 34.2417 57.862 33.9297 57.946C33.6177 58.018 33.3717 58.168 33.1917 58.396C33.4557 58.468 33.6717 58.612 33.8397 58.828C34.0197 59.032 34.1097 59.29 34.1097 59.602C34.1097 59.938 33.9957 60.202 33.7677 60.394C33.5517 60.586 33.2757 60.682 32.9397 60.682C32.5677 60.682 32.2917 60.568 32.1117 60.34C31.9317 60.1 31.8417 59.824 31.8417 59.512C31.8417 59.188 31.9197 58.924 32.0757 58.72C32.2437 58.516 32.4597 58.324 32.7237 58.144C33.0117 57.952 33.3777 57.79 33.8217 57.658C34.2777 57.526 34.7817 57.46 35.3337 57.46C35.8497 57.46 36.2937 57.52 36.6657 57.64C37.0497 57.748 37.3677 57.928 37.6197 58.18C37.9197 58.456 38.1177 58.804 38.2137 59.224C38.3097 59.632 38.3577 60.13 38.3577 60.718V65.686C38.3577 65.986 38.3937 66.202 38.4657 66.334C38.5497 66.454 38.6817 66.514 38.8617 66.514C38.9817 66.514 39.0957 66.484 39.2037 66.424C39.3237 66.364 39.4617 66.274 39.6177 66.154L39.7977 66.46C39.5457 66.664 39.2877 66.826 39.0237 66.946C38.7717 67.066 38.4477 67.126 38.0517 67.126C37.6677 67.126 37.3557 67.066 37.1157 66.946C36.8757 66.826 36.6957 66.652 36.5757 66.424C36.4677 66.196 36.4137 65.914 36.4137 65.578C36.1017 66.082 35.7297 66.466 35.2977 66.73C34.8657 66.994 34.3617 67.126 33.7857 67.126ZM34.6497 66.262C34.9857 66.262 35.2977 66.166 35.5857 65.974C35.8857 65.782 36.1617 65.494 36.4137 65.11V61.528C36.2817 61.72 36.0897 61.888 35.8377 62.032C35.5857 62.164 35.3157 62.302 35.0277 62.446C34.7397 62.59 34.4637 62.758 34.1997 62.95C33.9477 63.13 33.7377 63.364 33.5697 63.652C33.4017 63.94 33.3177 64.306 33.3177 64.75C33.3177 65.218 33.4377 65.59 33.6777 65.866C33.9177 66.13 34.2417 66.262 34.6497 66.262ZM44.6196 54.04C45.2556 54.04 45.7416 54.112 46.0776 54.256C46.4136 54.4 46.7076 54.556 46.9596 54.724C47.1036 54.808 47.2176 54.874 47.3016 54.922C47.3976 54.958 47.4876 54.976 47.5716 54.976C47.6916 54.976 47.7756 54.91 47.8236 54.778C47.8836 54.646 47.9316 54.448 47.9676 54.184H48.3816C48.3696 54.4 48.3516 54.658 48.3276 54.958C48.3156 55.246 48.3036 55.63 48.2916 56.11C48.2916 56.59 48.2916 57.22 48.2916 58H47.8776C47.8416 57.412 47.7096 56.842 47.4816 56.29C47.2656 55.738 46.9416 55.288 46.5096 54.94C46.0896 54.592 45.5496 54.418 44.8896 54.418C44.2776 54.418 43.7676 54.604 43.3596 54.976C42.9636 55.336 42.7656 55.816 42.7656 56.416C42.7656 56.944 42.8976 57.388 43.1616 57.748C43.4256 58.096 43.7856 58.426 44.2416 58.738C44.7096 59.038 45.2376 59.374 45.8256 59.746C46.4256 60.13 46.9656 60.514 47.4456 60.898C47.9256 61.27 48.3036 61.684 48.5796 62.14C48.8556 62.596 48.9936 63.148 48.9936 63.796C48.9936 64.576 48.8076 65.224 48.4356 65.74C48.0756 66.244 47.5896 66.622 46.9776 66.874C46.3656 67.126 45.6936 67.252 44.9616 67.252C44.2896 67.252 43.7556 67.18 43.3596 67.036C42.9636 66.892 42.6276 66.742 42.3516 66.586C42.0876 66.418 41.8836 66.334 41.7396 66.334C41.6196 66.334 41.5296 66.4 41.4696 66.532C41.4216 66.664 41.3796 66.862 41.3436 67.126H40.9296C40.9536 66.862 40.9656 66.556 40.9656 66.208C40.9776 65.848 40.9836 65.38 40.9836 64.804C40.9956 64.228 41.0016 63.502 41.0016 62.626H41.4156C41.4636 63.37 41.5956 64.066 41.8116 64.714C42.0396 65.362 42.3816 65.884 42.8376 66.28C43.3056 66.664 43.9236 66.856 44.6916 66.856C45.0996 66.856 45.4776 66.778 45.8256 66.622C46.1736 66.466 46.4556 66.22 46.6716 65.884C46.8876 65.548 46.9956 65.116 46.9956 64.588C46.9956 64.096 46.8756 63.664 46.6356 63.292C46.4076 62.92 46.0836 62.578 45.6636 62.266C45.2556 61.942 44.7756 61.612 44.2236 61.276C43.6596 60.916 43.1316 60.556 42.6396 60.196C42.1476 59.836 41.7516 59.416 41.4516 58.936C41.1636 58.456 41.0196 57.886 41.0196 57.226C41.0196 56.494 41.1876 55.894 41.5236 55.426C41.8716 54.958 42.3156 54.61 42.8556 54.382C43.4076 54.154 43.9956 54.04 44.6196 54.04ZM52.48 53.176C52.852 53.176 53.164 53.296 53.416 53.536C53.668 53.764 53.794 54.052 53.794 54.4C53.794 54.748 53.668 55.042 53.416 55.282C53.164 55.51 52.852 55.624 52.48 55.624C52.108 55.624 51.796 55.51 51.544 55.282C51.292 55.042 51.166 54.748 51.166 54.4C51.166 54.052 51.292 53.764 51.544 53.536C51.796 53.296 52.108 53.176 52.48 53.176ZM53.56 57.514V65.326C53.56 65.83 53.656 66.172 53.848 66.352C54.052 66.532 54.388 66.622 54.856 66.622V67C54.652 66.988 54.334 66.976 53.902 66.964C53.482 66.94 53.05 66.928 52.606 66.928C52.186 66.928 51.754 66.94 51.31 66.964C50.866 66.976 50.536 66.988 50.32 67V66.622C50.788 66.622 51.118 66.532 51.31 66.352C51.514 66.172 51.616 65.83 51.616 65.326V59.674C51.616 59.134 51.526 58.738 51.346 58.486C51.166 58.222 50.824 58.09 50.32 58.09V57.712C50.704 57.748 51.076 57.766 51.436 57.766C51.844 57.766 52.222 57.748 52.57 57.712C52.93 57.664 53.26 57.598 53.56 57.514ZM58.8665 54.742V57.73H61.3505V58.09H58.8665V65.164C58.8665 65.656 58.9565 66.004 59.1365 66.208C59.3165 66.412 59.5745 66.514 59.9105 66.514C60.2225 66.514 60.4985 66.388 60.7385 66.136C60.9905 65.884 61.2065 65.458 61.3865 64.858L61.7285 64.984C61.5845 65.62 61.3265 66.16 60.9545 66.604C60.5945 67.036 60.0605 67.252 59.3525 67.252C58.9445 67.252 58.6025 67.198 58.3265 67.09C58.0505 66.994 57.8105 66.85 57.6065 66.658C57.3425 66.382 57.1625 66.052 57.0665 65.668C56.9705 65.284 56.9225 64.774 56.9225 64.138V58.09H55.2665V57.73H56.9225V55.102C57.2945 55.09 57.6425 55.06 57.9665 55.012C58.2905 54.952 58.5905 54.862 58.8665 54.742ZM66.5086 57.46C67.5646 57.46 68.3926 57.778 68.9926 58.414C69.5926 59.05 69.8926 60.058 69.8926 61.438H63.6826L63.6466 61.096H67.9846C67.9966 60.508 67.9486 59.968 67.8406 59.476C67.7326 58.972 67.5646 58.57 67.3366 58.27C67.1086 57.97 66.8086 57.82 66.4366 57.82C65.9206 57.82 65.4706 58.096 65.0866 58.648C64.7146 59.188 64.4866 60.058 64.4026 61.258L64.4566 61.348C64.4446 61.516 64.4326 61.702 64.4206 61.906C64.4086 62.098 64.4026 62.29 64.4026 62.482C64.4026 63.31 64.5286 64.006 64.7806 64.57C65.0326 65.134 65.3626 65.56 65.7706 65.848C66.1786 66.124 66.5926 66.262 67.0126 66.262C67.3366 66.262 67.6486 66.214 67.9486 66.118C68.2606 66.01 68.5546 65.836 68.8306 65.596C69.1066 65.344 69.3526 65.002 69.5686 64.57L69.9286 64.714C69.7846 65.122 69.5626 65.524 69.2626 65.92C68.9626 66.316 68.5786 66.64 68.1106 66.892C67.6426 67.132 67.0966 67.252 66.4726 67.252C65.6326 67.252 64.9006 67.066 64.2766 66.694C63.6526 66.31 63.1726 65.764 62.8366 65.056C62.5006 64.348 62.3326 63.508 62.3326 62.536C62.3326 61.468 62.5066 60.556 62.8546 59.8C63.2026 59.044 63.6886 58.468 64.3126 58.072C64.9486 57.664 65.6806 57.46 66.5086 57.46Z" fill="black"/>
</svg>
